<?xml version="1.0" standalone="no"?>
<!DOCTYPE svg PUBLIC "-//W3C//DTD SVG 20010904//EN"
 "http://www.w3.org/TR/2001/REC-SVG-20010904/DTD/svg10.dtd">
<svg version="1.0" xmlns="http://www.w3.org/2000/svg"
 width="300.000000pt" height="200.000000pt" viewBox="0 0 300.000000 200.000000"
 preserveAspectRatio="xMidYMid meet">
<metadata>
Created by potrace 1.10, written by Peter Selinger 2001-2011
</metadata>
<g transform="translate(0.000000,200.000000) scale(0.100000,-0.100000)"
fill="#000000" stroke="none">
<path d="M135 1976 c22 -14 42 -23 44 -20 7 7 -21 34 -30 28 -5 -3 -9 0 -9 5
0 6 -10 11 -22 11 -19 0 -16 -4 17 -24z"/>
<path d="M220 1979 c19 -12 42 -27 50 -35 14 -12 16 -9 18 24 1 29 -1 33 -8
17 -9 -20 -9 -20 -9 0 -1 17 -3 17 -11 5 -5 -8 -10 -10 -10 -5 0 6 -15 12 -32
13 l-33 2 35 -21z"/>
<path d="M303 1971 c2 -24 7 -35 20 -37 20 -3 23 12 3 19 -8 3 -17 16 -19 29
-3 14 -4 9 -4 -11z"/>
<path d="M735 1938 l0 -63 -52 -3 c-29 -2 -53 -5 -53 -7 0 -3 16 -25 35 -51
19 -25 35 -49 35 -54 0 -5 15 -10 33 -12 32 -3 32 -3 42 -78 6 -41 19 -91 30
-110 11 -19 25 -48 32 -64 7 -15 24 -37 38 -48 14 -11 25 -26 25 -34 0 -9 5
-24 10 -35 10 -17 13 -18 26 -5 12 13 14 42 8 190 l-7 175 24 5 c67 16 1639
34 1639 19 0 -4 -10 -37 -22 -71 -20 -58 -21 -65 -6 -73 19 -11 139 -109 151
-124 6 -7 10 -6 14 3 8 20 26 14 20 -8 -4 -16 10 -31 70 -75 42 -30 79 -55 83
-55 5 0 13 14 19 31 14 42 14 47 -2 25 -13 -17 -15 -17 -42 6 -26 22 -27 28
-21 71 4 27 13 47 20 47 18 0 66 -24 66 -32 0 -5 5 -8 11 -8 16 0 0 19 -44 51
-46 34 -52 30 -62 -41 -8 -61 -21 -83 -30 -49 -4 16 2 47 14 80 12 30 21 54
21 55 0 1 -39 27 -87 59 -49 32 -107 74 -130 92 l-43 34 20 52 c11 29 20 56
20 61 0 4 -354 5 -799 1 -439 -4 -819 -5 -845 -1 -42 7 -46 10 -46 34 0 43
-11 72 -28 72 -12 0 -14 -9 -8 -47 3 -25 13 -54 21 -63 22 -24 18 -33 -10 -28
-18 4 -25 1 -25 -10 0 -12 9 -14 53 -8 147 19 1631 34 1642 16 3 -5 0 -10 -8
-10 -8 0 -14 -7 -13 -16 0 -9 -8 -19 -19 -21 -11 -3 -211 -7 -445 -9 -234 -2
-526 -7 -650 -11 -357 -11 -465 -10 -462 5 2 10 -3 9 -20 -2 -13 -8 -35 -12
-50 -11 -22 3 -28 0 -28 -16 0 -10 4 -19 8 -19 5 0 9 -65 10 -145 1 -80 -2
-145 -6 -145 -5 0 -16 18 -26 40 -10 23 -29 51 -43 64 -22 21 -27 36 -34 111
-4 48 -10 90 -14 93 -4 4 -25 11 -48 17 -28 7 -43 16 -45 29 -3 16 2 18 46 15
36 -3 48 -1 45 8 -3 7 -10 11 -16 10 -7 -1 -11 7 -10 18 3 30 5 98 4 118 -1 9
-9 17 -18 17 -15 0 -18 -10 -18 -62z m1943 -258 c-4 -24 -2 -27 9 -19 9 9 17
8 28 -1 8 -7 15 -9 15 -4 0 5 5 1 11 -8 5 -10 16 -18 22 -18 7 0 27 -13 44
-29 30 -27 31 -30 19 -65 -17 -50 -21 -51 -53 -22 -15 14 -33 26 -40 26 -6 0
-26 15 -44 34 -17 19 -37 32 -43 30 -15 -6 -39 51 -31 76 8 25 25 26 26 3 0
-15 3 -14 16 5 21 30 26 28 21 -8z"/>
<path d="M436 1981 c-9 -14 164 -263 226 -324 10 -10 15 -23 12 -29 -4 -6 -3
-8 3 -5 6 4 13 -3 16 -14 3 -12 10 -18 16 -14 7 3 11 -2 11 -14 0 -27 17 -27
25 0 4 12 1 27 -8 37 -7 9 -17 25 -20 35 -4 9 -11 17 -17 17 -5 0 -10 8 -10
18 0 10 -13 32 -30 50 -16 18 -30 39 -30 46 0 16 -32 46 -49 46 -7 0 -9 5 -6
10 3 6 -13 33 -36 60 -32 38 -47 49 -61 44 -16 -5 -19 -2 -16 17 3 23 -15 38
-26 20z"/>
<path d="M50 1971 c0 -5 8 -12 18 -15 10 -3 35 -24 57 -47 21 -22 50 -48 64
-57 86 -56 203 -190 266 -307 21 -38 48 -83 61 -100 25 -34 56 -101 74 -160 6
-22 18 -54 26 -72 8 -17 14 -49 14 -71 0 -22 6 -52 14 -67 8 -15 12 -33 9 -40
-2 -8 1 -23 7 -35 l12 -22 14 21 c30 43 87 13 66 -34 -11 -24 -10 -25 19 -25
16 0 32 -6 35 -14 8 -22 42 -16 36 6 -2 10 -8 15 -14 12 -5 -3 -6 6 -3 23 3
15 2 22 -1 15 -4 -9 -14 -3 -30 19 -29 40 -31 50 -4 21 28 -30 32 -28 12 7 -9
16 -22 27 -29 24 -7 -3 -13 0 -13 6 0 6 5 11 12 11 7 0 5 5 -4 13 -20 15 -36
63 -18 52 9 -6 11 -4 5 4 -15 26 -28 -6 -16 -40 14 -42 14 -56 -1 -41 -6 6
-12 36 -13 66 0 30 -4 58 -9 63 -5 4 -5 -3 -1 -17 7 -22 6 -23 -9 -11 -20 17
-20 13 -1 -32 17 -42 20 -71 5 -62 -5 3 -10 -2 -11 -12 -1 -26 -37 57 -38 87
l0 25 15 -25 15 -25 -7 25 c-10 40 -10 45 4 42 10 -2 10 2 2 17 -13 26 -13 44
1 35 8 -4 7 0 -1 15 -6 12 -15 19 -21 16 -5 -4 -9 1 -9 9 0 9 -4 16 -10 16 -5
0 -9 3 -8 8 1 4 -17 45 -40 92 -24 47 -40 74 -36 60 l6 -25 -17 23 c-10 13
-18 34 -19 47 0 13 -4 21 -7 19 -3 -2 -14 14 -23 34 -28 59 -77 132 -86 127
-4 -3 -7 3 -6 12 0 10 -4 18 -10 18 -12 0 -44 30 -44 40 0 13 -133 144 -141
140 -4 -3 -21 7 -38 21 -17 14 -37 27 -44 28 -7 1 -26 12 -41 24 -31 23 -46
28 -46 13z"/>
<path d="M2662 1945 c-17 -37 -14 -44 6 -17 17 22 19 22 58 8 23 -8 60 -24 83
-36 24 -12 49 -19 57 -16 8 3 42 -5 74 -18 l60 -25 0 30 0 30 -77 -2 c-71 -2
-85 1 -157 35 -43 20 -82 36 -86 36 -4 0 -12 -11 -18 -25z"/>
<path d="M190 1949 c1 -15 50 -56 50 -41 0 5 -11 19 -25 32 -17 16 -25 19 -25
9z"/>
<path d="M2938 1949 c-10 -7 -10 -9 2 -9 8 0 25 -3 38 -6 12 -4 22 -2 22 4 0
13 -45 21 -62 11z"/>
<path d="M1690 1940 c-100 -6 -97 -6 55 -7 88 -1 178 3 200 7 49 9 -94 9 -255
0z"/>
<path d="M2013 1944 c2 -3 101 -7 218 -9 135 -3 204 -1 186 5 -28 8 -413 13
-404 4z"/>
<path d="M1141 1930 c9 -5 31 -8 49 -5 53 6 47 15 -11 15 -38 -1 -49 -3 -38
-10z"/>
<path d="M1368 1933 c34 -2 90 -2 125 0 34 2 6 3 -63 3 -69 0 -97 -1 -62 -3z"/>
<path d="M259 1892 c20 -33 81 -81 81 -63 0 6 -7 11 -15 11 -8 0 -12 6 -10 13
2 6 -11 22 -31 34 -28 18 -32 19 -25 5z"/>
<path d="M55 1890 c3 -6 13 -10 21 -10 8 0 18 -8 21 -17 4 -10 13 -23 21 -29
12 -9 12 -13 -3 -27 -9 -9 -13 -17 -8 -17 4 0 19 -9 33 -20 14 -11 61 -44 105
-72 44 -28 82 -54 85 -57 3 -3 23 -22 44 -41 l38 -35 -15 31 c-18 36 -130 154
-146 154 -6 0 -11 7 -11 15 0 8 -14 18 -32 23 -22 6 -33 15 -32 25 2 22 -5 21
-23 0 -14 -17 -14 -17 -9 -1 3 11 -5 28 -20 44 -27 26 -81 53 -69 34z"/>
<path d="M835 1795 c0 -41 3 -75 6 -75 11 0 21 89 14 120 -11 52 -20 32 -20
-45z"/>
<path d="M1913 1833 c86 -2 228 -2 315 0 86 1 15 3 -158 3 -173 0 -244 -2
-157 -3z"/>
<path d="M350 1810 c0 -13 3 -20 7 -17 3 4 17 -11 31 -34 13 -22 26 -38 29
-36 5 5 -17 43 -49 86 l-18 24 0 -23z"/>
<path d="M510 1775 c0 -26 61 -125 78 -125 7 0 11 -4 8 -9 -11 -17 5 -66 30
-95 25 -28 48 -30 25 -2 -7 8 -10 19 -7 24 3 5 -3 21 -14 35 -11 14 -20 28
-20 32 0 4 -16 30 -35 56 -19 27 -35 52 -35 57 0 4 -7 16 -15 26 -15 19 -15
19 -15 1z"/>
<path d="M2750 1705 c0 -8 4 -15 8 -15 4 0 53 -34 107 -75 95 -71 132 -92 106
-61 -28 33 -221 165 -221 151z"/>
<path d="M120 1702 c0 -4 16 -14 37 -21 29 -11 153 -97 153 -107 0 -4 -54 4
-77 11 -35 11 -27 -8 10 -24 64 -28 180 -116 243 -185 35 -39 64 -75 64 -82 0
-6 7 -17 15 -24 25 -20 17 1 -25 74 -22 37 -40 71 -40 75 0 4 -26 33 -57 66
-32 33 -56 63 -55 67 1 5 -4 7 -11 5 -6 -1 -11 4 -9 12 2 8 -3 11 -12 8 -9 -4
-15 -2 -13 2 3 11 -68 68 -94 76 -10 4 -19 10 -19 15 0 9 -73 40 -95 40 -8 0
-15 -4 -15 -8z"/>
<path d="M2496 1464 c-26 -75 -44 -139 -42 -142 3 -3 7 1 10 9 2 8 23 69 46
137 24 67 40 125 38 128 -3 2 -26 -57 -52 -132z"/>
<path d="M636 1481 c-3 -4 1 -17 9 -27 8 -10 15 -14 15 -8 0 5 -6 16 -12 23
-11 11 -10 13 2 9 9 -3 15 -17 15 -36 0 -21 12 -45 39 -77 76 -92 123 -187
141 -288 4 -20 11 -40 16 -43 6 -3 7 6 4 23 -4 15 -7 35 -7 43 0 8 -4 20 -9
25 -4 6 -7 26 -7 44 1 21 -5 37 -15 43 -10 5 -17 16 -17 24 0 9 5 12 12 8 7
-5 8 -3 4 5 -5 7 -11 10 -14 7 -3 -3 -13 11 -22 32 -10 20 -34 54 -54 76 -27
28 -35 44 -31 60 5 17 4 18 -4 6 -6 -8 -11 -10 -12 -5 -4 24 -6 31 -14 48 -8
18 -30 23 -39 8z"/>
<path d="M330 1440 c0 -5 9 -14 20 -20 11 -6 20 -15 20 -21 0 -6 -4 -8 -9 -4
-5 3 -12 1 -15 -4 -11 -18 6 -40 35 -46 38 -9 84 -32 99 -50 7 -8 16 -15 21
-15 15 0 10 19 -11 40 -11 11 -17 20 -14 20 3 0 -13 18 -36 40 -23 22 -48 40
-56 40 -8 0 -17 7 -20 15 -7 16 -34 21 -34 5z"/>
<path d="M1890 1390 c-11 -7 -7 -10 17 -10 33 0 223 -83 223 -97 0 -4 10 -19
21 -33 15 -18 13 -10 -8 29 -28 54 -29 55 -118 88 -97 35 -112 38 -135 23z"/>
<path d="M2926 1351 c-3 -4 -23 -54 -45 -110 -35 -90 -46 -107 -101 -159 l-62
-59 -125 84 c-69 46 -127 82 -130 80 -2 -3 7 -14 21 -25 15 -11 26 -23 26 -27
0 -7 53 -79 73 -100 15 -16 -3 15 -31 53 -19 24 -21 32 -9 32 8 0 17 -7 21
-15 3 -8 10 -15 15 -15 17 0 80 -47 73 -55 -4 -3 -2 -6 3 -5 41 9 70 -24 41
-46 -20 -14 -20 -28 -1 -44 8 -7 15 -18 15 -24 0 -6 -9 0 -19 13 -10 13 -21
20 -24 14 -3 -5 6 -24 20 -42 20 -25 28 -30 35 -19 5 8 6 2 2 -17 -4 -16 -7
-31 -8 -32 -1 -1 -22 24 -48 55 -189 233 -251 325 -246 364 l5 28 -125 0 c-69
0 -122 -3 -119 -7 4 -4 57 -6 118 -4 110 2 110 1 108 -21 -2 -13 1 -34 5 -48
11 -33 201 -293 243 -333 18 -17 33 -37 33 -43 0 -8 -31 -14 -92 -18 -161 -10
-922 -23 -943 -15 -12 4 -25 1 -33 -8 -10 -10 -17 -11 -26 -4 -7 6 -25 9 -41
8 -43 -3 -41 19 4 37 27 10 43 24 47 40 8 32 93 79 128 70 15 -3 38 -3 54 1
25 7 22 9 -28 21 -59 14 -89 8 -141 -27 -14 -10 -30 -15 -34 -11 -4 4 -6 -2
-5 -13 4 -33 0 -41 -10 -25 -8 13 -10 12 -10 -4 0 -11 -3 -17 -6 -13 -3 3 -19
-10 -36 -29 -17 -19 -35 -33 -42 -32 -6 1 -21 -3 -33 -10 -42 -23 -66 -10 -80
44 -15 60 -16 67 -3 59 6 -4 7 6 4 25 -7 32 -4 34 59 32 27 0 28 1 11 19 -20
22 -54 25 -74 7 -12 -11 -12 -10 -1 5 12 15 11 17 -9 17 -15 0 -20 -4 -17 -15
4 -8 2 -17 -3 -20 -6 -4 -10 -1 -10 4 0 6 -9 11 -21 11 -11 0 -17 4 -14 10 3
5 0 7 -8 4 -11 -4 -8 -11 13 -32 15 -15 34 -53 44 -87 10 -33 21 -67 24 -75 9
-26 7 -55 -3 -55 -5 0 -9 4 -7 8 1 5 -3 7 -9 5 -8 -3 -12 -27 -10 -74 2 -73
-12 -124 -36 -124 -7 0 -13 -4 -13 -10 0 -30 53 9 74 55 12 25 16 48 11 73
l-6 37 70 38 c77 42 81 43 81 23 0 -7 -10 -16 -21 -19 -18 -5 -21 -11 -15 -38
3 -17 6 -43 6 -58 1 -24 2 -25 14 -8 18 23 21 15 41 -115 8 -57 19 -116 23
-133 l9 -30 144 3 c79 2 396 14 703 28 308 13 565 24 573 24 7 0 13 7 13 15 0
18 3 18 -240 5 -186 -9 -714 -33 -1017 -46 l-163 -7 -8 24 c-5 13 -15 62 -21
109 -7 47 -17 109 -23 138 -12 67 -6 87 21 70 15 -9 22 -32 32 -97 6 -47 15
-95 20 -106 12 -31 10 -9 -10 108 -10 59 -14 107 -9 107 5 0 19 -5 31 -11 15
-8 104 -11 297 -9 151 2 291 4 310 6 19 1 133 3 254 3 l218 1 -6 23 c-4 17 0
25 16 32 16 7 38 51 80 160 33 82 67 157 76 167 32 33 42 47 42 63 0 9 11 42
25 75 14 33 25 69 25 80 0 20 -14 27 -24 11z m-172 -423 c-8 -15 -17 -28 -20
-28 -3 0 -2 5 1 10 4 6 1 17 -5 25 -7 8 -10 22 -6 30 4 13 9 13 25 3 18 -11
18 -14 5 -40z"/>
<path d="M1880 1325 c-25 -14 -57 -30 -72 -37 -37 -16 -35 -22 10 -41 l37 -15
-48 1 c-32 0 -51 -5 -60 -15 -15 -20 -73 -33 -82 -19 -4 8 -12 8 -25 1 -10 -5
-32 -10 -48 -10 -16 0 -41 -9 -55 -20 -29 -23 -152 -80 -173 -80 -8 0 -33 -12
-55 -27 -36 -24 -44 -25 -73 -15 -40 15 -73 15 -81 2 -4 -6 -11 -8 -16 -5 -9
6 -52 -19 -45 -26 2 -2 -9 -4 -25 -3 -37 1 -40 5 -60 62 -14 42 -14 53 -1 102
19 73 44 106 89 117 l38 9 -33 18 c-41 21 -78 18 -76 -7 1 -9 -2 -17 -6 -17
-4 0 -10 -21 -14 -46 -3 -25 -12 -52 -20 -60 -13 -13 -16 -10 -22 21 -4 26 -1
44 15 70 17 29 18 35 5 35 -9 0 -18 -9 -21 -20 -7 -28 -23 -25 -23 4 0 14 -5
28 -11 31 -19 12 -23 -5 -10 -38 7 -18 14 -41 16 -52 2 -11 15 -60 30 -110 14
-49 27 -98 30 -108 11 -48 17 -57 39 -57 31 0 89 25 106 44 17 21 79 21 95 -1
11 -15 16 -15 61 7 27 13 96 42 154 64 69 27 105 46 105 56 0 8 10 16 22 18
18 3 22 0 16 -14 -5 -14 -3 -16 11 -11 10 4 25 7 34 7 13 0 13 2 -2 13 -17 13
-17 14 -2 20 9 4 27 2 40 -4 19 -9 40 -5 117 26 52 21 98 44 104 51 5 8 31 17
56 20 40 5 52 3 85 -20 21 -14 47 -26 57 -26 10 0 34 -7 53 -15 l36 -15 -38
43 c-38 42 -119 86 -161 87 -14 0 -23 6 -23 15 0 21 -28 18 -80 -10z"/>
<path d="M1385 1322 c-31 -7 -46 -23 -40 -43 5 -14 2 -17 -8 -13 -9 3 -16 -3
-20 -15 -3 -15 0 -21 10 -21 12 0 14 -7 10 -29 -11 -54 6 -41 27 22 19 54 26
63 56 74 35 11 35 12 -10 28 -3 1 -14 0 -25 -3z"/>
<path d="M1201 1301 c-20 -20 -47 -99 -37 -108 3 -3 12 1 20 10 8 8 12 17 9
21 -4 3 1 6 10 6 17 0 19 20 4 31 -5 3 3 13 17 23 14 9 26 21 26 26 0 17 -29
11 -49 -9z"/>
<path d="M356 1296 c4 -12 0 -16 -15 -16 -12 0 -21 -4 -21 -8 0 -5 24 -4 53 2
37 8 45 12 27 14 -14 2 -31 9 -38 14 -9 8 -11 7 -6 -6z"/>
<path d="M865 1252 c4 -13 1 -29 -5 -37 -10 -12 -9 -15 9 -15 19 0 21 4 15 23
-9 32 -27 59 -19 29z"/>
<path d="M1687 1261 c-17 -6 -16 -8 7 -19 23 -10 26 -9 26 8 0 21 -4 23 -33
11z"/>
<path d="M406 1245 c-2 -6 10 -26 27 -45 l30 -35 -22 38 c-13 20 -18 37 -13
37 13 0 42 -34 42 -50 0 -7 3 -10 7 -7 12 12 -30 76 -49 74 -9 -1 -19 -6 -22
-12z"/>
<path d="M512 1225 c7 -16 17 -33 23 -37 5 -4 1 -10 -10 -14 -44 -15 -75 -29
-75 -35 0 -4 8 -13 18 -20 15 -13 16 -12 4 3 -12 15 -11 17 10 16 13 -1 29 -6
36 -11 9 -7 11 -5 6 8 -6 15 -3 16 17 10 13 -4 36 -16 50 -26 l26 -18 -5 24
c-2 13 -10 30 -18 36 -8 6 -14 18 -14 25 0 8 -4 14 -10 14 -5 0 -10 -5 -10
-12 0 -11 -23 13 -47 49 -10 14 -10 12 -1 -12z"/>
<path d="M1935 1199 c-71 -29 -78 -41 -14 -24 69 19 110 19 145 0 16 -8 45
-15 64 -15 19 0 49 -4 67 -9 25 -7 31 -6 27 4 -3 7 -35 19 -72 25 -37 7 -79
19 -94 26 -36 19 -63 17 -123 -7z"/>
<path d="M2970 1205 c-7 -8 -19 -15 -26 -15 -8 0 -14 -4 -14 -10 0 -5 6 -10
13 -10 8 0 7 -4 -3 -10 -8 -5 -10 -10 -5 -10 6 0 3 -5 -5 -10 -12 -8 -12 -10
-1 -10 18 0 61 50 61 73 0 21 -4 21 -20 2z"/>
<path d="M882 1161 c-13 -30 -7 -61 15 -74 8 -5 11 -16 8 -28 -4 -11 -2 -25 3
-32 13 -18 23 -49 13 -43 -5 3 -12 -1 -15 -10 -3 -8 -10 -12 -16 -9 -5 3 -10
1 -10 -5 0 -7 6 -10 13 -7 6 2 20 0 30 -5 10 -5 32 -6 48 -3 27 6 29 9 16 23
-22 25 -61 115 -59 133 2 9 -4 22 -13 29 -8 7 -15 18 -15 24 0 6 5 4 10 -4 5
-8 10 -10 10 -5 -1 6 -6 17 -13 27 -12 15 -14 13 -25 -11z"/>
<path d="M1945 1149 c-22 -4 -62 -8 -90 -9 -27 0 -61 -7 -75 -15 l-25 -14 27
-1 c15 0 30 5 33 10 5 8 11 7 20 0 8 -7 27 -9 42 -6 63 14 73 14 116 1 24 -7
53 -18 63 -23 46 -23 88 -32 95 -20 5 8 17 1 38 -21 17 -18 31 -28 31 -21 0
10 3 10 15 0 8 -7 15 -20 15 -29 0 -9 5 -22 12 -29 21 -21 -10 -15 -33 6 -23
22 -40 31 -141 70 -42 16 -76 24 -75 18 1 -6 -9 -10 -23 -8 -98 12 -173 11
-196 -4 -23 -16 -29 -16 -134 1 -36 6 -77 -15 -66 -33 3 -5 46 -8 98 -6 113 5
118 5 118 15 0 9 170 7 176 -2 3 -5 11 -6 19 -2 8 3 15 3 15 0 0 -3 -33 -18
-72 -33 -40 -15 -77 -30 -83 -34 -5 -4 -19 -10 -30 -13 -16 -4 -14 -5 7 -6 15
0 57 10 95 23 37 13 83 26 101 30 40 7 114 -10 159 -37 34 -20 34 -21 1 -69
-15 -22 -17 -32 -8 -48 13 -24 22 -27 13 -3 -4 11 -3 14 6 9 20 -13 41 13 35
43 -4 22 -4 23 6 9 8 -13 23 -18 48 -17 l37 2 -40 6 c-34 5 -37 8 -22 17 38
22 27 152 -14 175 -11 6 -18 16 -16 23 5 13 -42 24 -128 31 -16 2 -42 5 -57 9
-55 12 -74 13 -113 5z"/>
<path d="M1501 1050 c29 -24 8 -26 -29 -3 l-27 17 29 -32 c33 -35 59 -43 49
-14 -3 9 8 1 25 -18 17 -19 31 -29 32 -22 0 19 -31 62 -45 62 -7 0 -18 7 -25
15 -7 8 -17 15 -22 15 -6 0 0 -9 13 -20z"/>
<path d="M515 1036 c18 -13 17 -14 -10 -12 -17 1 -37 5 -45 10 -9 6 -7 0 5
-13 11 -13 21 -18 23 -11 3 7 8 7 15 2 19 -15 60 -26 53 -14 -3 6 2 12 11 14
13 3 7 9 -21 21 -47 21 -56 21 -31 3z"/>
<path d="M1430 1036 c8 -11 14 -27 12 -37 -2 -9 2 -20 8 -24 18 -11 24 3 10
22 -8 10 -3 8 11 -5 21 -19 22 -24 9 -33 -12 -9 -12 -10 4 -5 10 4 25 1 32 -5
8 -6 14 -8 14 -3 -1 9 -46 54 -90 89 -23 19 -24 19 -10 1z"/>
<path d="M386 991 c-3 -5 1 -14 9 -21 8 -7 15 -9 15 -4 0 4 19 -10 43 -31 35
-33 34 -31 -8 13 -54 58 -52 55 -59 43z"/>
<path d="M1155 990 c-3 -4 5 -10 16 -13 12 -3 18 -10 15 -15 -3 -6 2 -8 14 -5
30 8 33 21 8 29 -35 12 -48 13 -53 4z"/>
<path d="M503 977 c0 -7 15 -13 35 -14 38 -2 32 11 -9 20 -17 4 -26 2 -26 -6z"/>
<path d="M334 954 c15 -32 43 -60 51 -52 3 3 -11 22 -30 44 -34 37 -35 38 -21
8z"/>
<path d="M2040 969 c0 -16 23 -59 32 -59 4 0 8 7 8 15 0 8 4 15 10 15 5 0 7 6
4 14 -6 15 -54 29 -54 15z"/>
<path d="M642 955 c-12 -5 -20 -16 -17 -22 2 -7 -3 -13 -11 -13 -8 0 -12 -5
-9 -10 4 -6 17 -3 33 9 15 10 39 18 52 16 14 -1 17 0 5 2 -18 5 -18 6 4 17 23
13 23 13 -6 12 -15 0 -38 -5 -51 -11z"/>
<path d="M1205 947 c-11 -8 -31 -17 -45 -20 -23 -5 -23 -5 -7 7 16 12 12 13
-27 11 -25 -2 -53 -8 -63 -14 -15 -9 -13 -10 12 -6 17 3 24 2 18 -1 -10 -4 -9
-9 3 -21 13 -14 21 -13 75 12 33 15 63 24 66 21 3 -3 -5 -10 -18 -15 -56 -22
-113 -51 -101 -51 7 0 32 9 55 19 24 11 55 23 70 26 31 8 46 25 22 25 -9 0
-13 5 -10 10 9 15 -27 12 -50 -3z"/>
<path d="M525 905 c34 -28 47 -32 39 -11 -3 8 -20 19 -37 25 l-32 11 30 -25z"/>
<path d="M865 911 c-3 -5 -1 -12 5 -16 6 -3 8 -17 6 -31 -3 -13 -1 -22 4 -19
4 3 10 1 12 -4 1 -5 14 0 28 11 22 18 23 21 7 29 -9 6 -17 17 -17 24 0 16 -35
21 -45 6z"/>
<path d="M960 917 c0 -4 7 -22 16 -38 8 -17 17 -44 20 -62 3 -18 7 -42 9 -54
2 -12 6 -27 10 -34 15 -23 25 17 14 55 -6 21 -8 44 -5 51 2 7 -2 16 -11 19 -8
4 -13 13 -9 21 3 8 0 15 -6 15 -6 0 -17 8 -24 18 -7 9 -14 13 -14 9z"/>
<path d="M1270 912 c-8 -3 -21 -12 -29 -20 -13 -13 -12 -14 9 -7 37 11 54 22
44 27 -5 3 -16 3 -24 0z"/>
<path d="M2416 909 c4 -8 -7 -10 -39 -8 -25 2 -42 0 -38 -4 12 -12 84 -4 89
11 2 6 -1 12 -8 12 -6 0 -8 -5 -4 -11z"/>
<path d="M1722 883 c-19 -14 -47 -26 -62 -27 -21 -1 -30 -7 -33 -24 -3 -17 -1
-22 10 -18 18 7 123 24 212 34 92 10 94 32 2 32 -56 0 -71 3 -71 15 0 22 -21
18 -58 -12z"/>
<path d="M623 874 c-13 -20 -14 -29 -5 -32 7 -2 10 -8 6 -13 -3 -5 2 -9 10 -9
9 0 16 5 16 11 0 6 7 8 16 5 13 -5 15 -1 10 20 -4 16 -3 23 3 20 5 -4 12 -2
16 4 3 5 0 10 -9 10 -8 0 -21 3 -29 6 -10 3 -22 -5 -34 -22z"/>
<path d="M2070 893 c0 -1 8 -18 17 -38 15 -31 21 -35 55 -35 42 0 44 3 24 39
-8 15 -16 20 -20 12 -9 -14 -56 -15 -56 0 0 6 12 9 27 7 14 -2 28 2 30 7 2 7
-13 11 -37 10 -22 0 -40 -1 -40 -2z"/>
<path d="M2445 863 c14 -30 19 -33 58 -31 l42 1 -42 4 c-24 2 -43 8 -43 12 0
4 -7 16 -15 27 -14 17 -14 15 0 -13z"/>
<path d="M710 838 c-7 -24 -18 -47 -24 -53 -14 -12 -17 -45 -5 -45 5 0 9 4 9
10 0 18 40 32 56 19 9 -7 14 -8 14 -1 0 6 -9 14 -20 17 -11 4 -18 10 -15 15 3
5 13 7 23 4 9 -3 6 1 -7 9 l-23 14 23 7 c20 5 21 8 9 16 -13 8 -12 10 3 10 10
0 15 5 12 10 -15 25 -42 9 -55 -32z"/>
<path d="M796 848 c-10 -39 -7 -107 7 -131 6 -12 13 -24 14 -26 1 -1 7 0 13 4
9 6 9 9 0 15 -17 11 -21 63 -4 56 18 -7 18 -1 -2 19 -15 15 -15 17 5 22 11 3
21 10 21 15 0 6 -9 8 -20 5 -11 -3 -20 -1 -20 3 0 5 8 11 18 13 16 4 16 5 -1
6 -10 0 -15 6 -12 11 3 6 2 10 -3 10 -5 0 -12 -10 -16 -22z"/>
<path d="M1103 846 c-35 -12 -66 -26 -70 -29 -11 -12 15 -8 49 7 18 8 51 21
73 30 63 24 17 17 -52 -8z"/>
<path d="M521 835 c9 -11 15 -25 12 -31 -2 -7 17 -26 42 -43 26 -17 45 -26 43
-19 -2 6 -19 19 -36 27 -21 11 -31 22 -29 35 1 10 -9 25 -23 34 -24 16 -25 16
-9 -3z"/>
<path d="M910 835 c-7 -8 -16 -13 -20 -10 -5 3 -11 1 -14 -4 -12 -19 14 -21
33 -2 10 10 27 21 38 24 15 4 15 5 -3 6 -12 0 -27 -6 -34 -14z"/>
<path d="M1443 683 c3 -60 -5 -83 -17 -45 -3 9 -4 -2 -2 -26 3 -24 11 -49 20
-55 11 -9 18 -46 26 -131 14 -152 25 -176 85 -175 l30 0 -27 15 c-32 17 -37
42 -10 50 45 15 46 17 12 27 -41 13 -51 24 -45 55 2 12 -1 48 -6 80 -6 31 -11
77 -11 102 0 42 0 43 -7 11 -12 -64 -26 -44 -26 37 -1 43 -6 86 -13 97 -11 17
-12 11 -9 -42z"/>
<path d="M980 479 c-92 -49 -108 -64 -60 -54 40 8 86 30 95 45 3 5 25 15 48
21 35 10 39 13 22 20 -27 11 -21 12 -105 -32z"/>
<path d="M1410 463 c0 -64 -15 -92 -48 -94 -9 0 -49 -2 -88 -5 l-71 -5 -18 48
c-9 26 -18 58 -19 71 0 12 -5 20 -11 18 -15 -5 -6 -56 19 -105 9 -16 16 -38
16 -48 0 -14 -7 -11 -28 14 -15 18 -39 37 -54 42 -16 6 -28 16 -28 22 0 6 6 9
13 6 8 -3 13 7 14 29 1 19 0 34 -2 34 -4 0 -45 -88 -45 -96 0 -2 3 -3 8 -2 13
4 72 -21 72 -30 0 -5 -15 -12 -32 -16 -36 -7 -143 -74 -134 -83 3 -4 14 1 23
10 34 30 114 58 148 51 29 -5 132 4 258 22 l39 6 -7 72 c-10 95 -24 119 -25
39z"/>
<path d="M2155 468 c-291 -11 -532 -21 -534 -24 -2 -2 -2 -7 2 -10 7 -8 988
28 1267 46 l115 7 -160 0 c-88 0 -398 -8 -690 -19z"/>
<path d="M1038 433 c-13 -16 -41 -41 -61 -57 -35 -27 -49 -56 -27 -56 6 0 10
4 10 9 0 5 16 19 34 32 19 13 44 41 56 61 25 45 22 48 -12 11z"/>
<path d="M954 295 c-22 -19 -34 -35 -28 -35 6 0 19 10 30 21 10 12 28 25 38
29 12 4 15 9 9 13 -6 4 -28 -9 -49 -28z"/>
<path d="M1412 295 c-11 -12 -10 -15 3 -15 8 0 14 -3 13 -7 -1 -5 6 -20 16
-35 20 -31 80 -48 99 -29 8 8 4 11 -15 11 -27 0 -88 53 -88 77 0 17 -12 16
-28 -2z"/>
<path d="M2198 295 c-4 -3 -335 -17 -403 -16 -27 0 -70 -4 -95 -9 -29 -6 20
-7 135 -3 269 8 413 17 388 24 -12 4 -23 6 -25 4z"/>
<path d="M1022 249 c-9 -18 -32 -54 -50 -82 -18 -27 -30 -52 -28 -54 3 -3 19
18 36 46 17 28 50 67 73 86 40 35 40 35 13 35 -20 0 -31 -8 -44 -31z"/>
<path d="M1215 261 c-45 -11 -115 -61 -115 -82 0 -11 -6 -19 -14 -19 -8 0 -16
-7 -20 -15 -4 -10 1 -15 15 -15 11 0 17 5 14 10 -3 6 1 10 9 10 9 0 16 8 16
17 0 9 3 13 7 10 3 -4 16 5 29 18 13 14 30 25 38 25 8 0 22 7 30 16 9 8 20 13
25 10 5 -3 11 1 15 9 6 16 -2 17 -49 6z"/>
<path d="M937 220 c-17 -11 -24 -20 -18 -24 14 -9 28 0 41 25 13 23 13 23 -23
-1z"/>
<path d="M2029 236 c-3 -3 -61 -6 -129 -7 -69 -1 -145 -5 -170 -10 -52 -9 279
0 390 11 l75 7 -81 2 c-44 0 -83 -1 -85 -3z"/>
</g>
</svg>
