<?xml version="1.0" standalone="no"?>
<!DOCTYPE svg PUBLIC "-//W3C//DTD SVG 20010904//EN"
 "http://www.w3.org/TR/2001/REC-SVG-20010904/DTD/svg10.dtd">
<svg version="1.0" xmlns="http://www.w3.org/2000/svg"
 width="100px" height="70px" viewBox="0 0 395.000000 286.000000"
 preserveAspectRatio="xMidYMid meet">

<g transform="translate(0.000000,286.000000) scale(0.100000,-0.100000)"
fill="#000000" stroke="none">
<path d="M60 1455 l0 -995 1000 0 1000 0 -2 387 c-2 298 -6 387 -15 391 -10 3
-13 -77 -13 -377 l0 -381 -972 2 -973 3 0 970 0 970 973 3 972 2 0 -375 c0
-327 2 -375 15 -375 13 0 15 49 15 385 l0 385 -1000 0 -1000 0 0 -995z"/>
<path d="M960 1580 c0 -11 7 -20 15 -20 12 0 15 -18 15 -105 0 -98 -1 -105
-20 -105 -13 0 -20 7 -20 20 0 13 -7 20 -20 20 -13 0 -20 -7 -20 -20 0 -11 5
-20 10 -20 6 0 10 -9 10 -20 0 -17 7 -20 45 -20 38 0 45 3 45 20 0 11 5 20 10
20 6 0 10 42 10 105 0 87 3 105 15 105 8 0 15 9 15 20 0 18 -7 20 -55 20 -48
0 -55 -2 -55 -20z"/>
<path d="M1120 1475 c0 -77 4 -125 10 -125 6 0 10 -9 10 -20 0 -18 7 -20 65
-20 58 0 65 2 65 20 0 11 5 20 10 20 6 0 10 48 10 125 0 118 -1 125 -20 125
-19 0 -20 -7 -20 -125 l0 -125 -42 0 -43 0 1 125 c1 125 1 125 -23 125 -23 0
-23 -1 -23 -125z"/>
<path d="M1350 1455 l0 -145 75 0 c68 0 75 2 75 20 0 17 -7 20 -50 20 l-50 0
0 125 0 125 -25 0 -25 0 0 -145z"/>
<path d="M1577 1594 c-9 -10 4 -34 19 -34 11 0 14 -22 14 -105 0 -87 -3 -105
-15 -105 -8 0 -15 -9 -15 -20 0 -17 7 -20 50 -20 43 0 50 3 50 20 0 11 -7 20
-15 20 -12 0 -15 18 -15 105 0 87 3 105 15 105 8 0 15 9 15 20 0 17 -7 20 -48
20 -27 0 -51 -3 -55 -6z"/>
<path d="M1805 1563 c-4 -21 -11 -41 -17 -44 -5 -3 -12 -34 -15 -68 -3 -34 -9
-63 -12 -66 -4 -2 -5 -20 -3 -39 3 -27 9 -36 23 -36 15 0 19 7 19 40 l0 40 40
0 40 0 0 -40 c0 -36 3 -40 25 -40 23 0 25 4 25 40 0 22 -4 40 -9 40 -4 0 -11
28 -14 62 -3 34 -10 64 -16 66 -5 2 -8 9 -5 17 3 7 1 16 -5 20 -6 3 -11 15
-11 26 0 14 -7 19 -29 19 -25 0 -30 -4 -36 -37z m60 -79 c7 -40 -3 -58 -31
-52 -21 4 -26 26 -11 45 5 7 7 20 3 28 -3 10 1 15 13 15 14 0 21 -10 26 -36z"/>
<path d="M1970 1455 c0 -138 1 -145 20 -145 18 0 20 7 20 85 0 50 4 85 10 85
6 0 10 -9 10 -20 0 -11 5 -20 10 -20 6 0 10 -11 10 -25 0 -14 5 -25 10 -25 6
0 10 -9 10 -20 0 -11 5 -20 10 -20 6 0 10 -9 10 -20 0 -15 7 -20 25 -20 l25 0
0 145 0 145 -24 0 c-23 0 -23 -3 -23 -80 0 -45 -3 -84 -7 -87 -3 -4 -6 4 -6
16 0 12 -6 24 -14 27 -8 3 -17 23 -21 45 -4 21 -11 39 -16 39 -5 0 -9 9 -9 20
0 15 -7 20 -25 20 l-25 0 0 -145z"/>
<path d="M2390 1456 c0 -139 1 -146 20 -146 19 0 20 7 20 105 0 58 4 105 9
105 5 0 12 -38 16 -85 5 -59 11 -85 20 -85 9 0 15 26 20 85 4 47 11 85 16 85
5 0 9 -47 9 -105 0 -98 1 -105 20 -105 19 0 20 7 20 145 l0 145 -25 0 c-18 0
-25 -5 -25 -20 0 -11 -4 -20 -9 -20 -5 0 -13 -19 -17 -42 l-7 -43 -10 40 c-6
22 -14 43 -19 46 -5 3 -8 12 -6 20 2 9 -7 15 -24 17 l-28 3 0 -145z"/>
<path d="M2640 1580 c0 -11 -4 -20 -10 -20 -5 0 -10 -9 -10 -20 0 -11 -4 -20
-10 -20 -6 0 -10 -28 -10 -65 0 -37 4 -65 10 -65 6 0 10 -9 10 -20 0 -11 6
-20 14 -20 8 0 13 -8 12 -17 -1 -14 8 -19 42 -21 37 -3 42 -1 42 17 0 12 6 21
14 21 15 0 26 43 26 105 0 62 -11 105 -26 105 -8 0 -14 9 -14 20 0 17 -7 20
-45 20 -38 0 -45 -3 -45 -20z m70 -40 c0 -11 5 -20 10 -20 6 0 10 -28 10 -65
0 -37 -4 -65 -10 -65 -5 0 -10 -9 -10 -20 0 -14 -7 -20 -24 -20 -21 0 -25 6
-32 43 -10 57 -11 127 -1 127 4 0 7 9 7 20 0 15 7 20 25 20 18 0 25 -5 25 -20z"/>
<path d="M2811 1455 l0 -145 24 0 c24 0 25 3 25 65 0 63 1 65 25 65 20 0 25
-5 25 -25 0 -14 4 -25 10 -25 5 0 7 -6 4 -14 -3 -8 -1 -17 5 -21 6 -3 11 -15
11 -26 0 -18 28 -27 42 -13 6 6 -13 66 -23 74 -4 3 -10 24 -13 46 -6 35 -5 42
12 46 14 4 19 15 20 42 1 20 -3 36 -8 36 -6 0 -10 9 -10 20 0 18 -7 20 -74 20
l-74 0 -1 -145z m119 65 c0 -39 -1 -40 -35 -40 -34 0 -35 1 -35 40 0 39 1 40
35 40 34 0 35 -1 35 -40z"/>
<path d="M3029 1598 c-1 -4 -1 -217 0 -255 1 -26 5 -33 21 -33 18 0 20 7 20
65 l0 65 40 0 40 0 0 -65 c0 -63 1 -65 25 -65 l25 0 -1 145 0 145 -24 0 c-24
0 -25 -3 -25 -60 l0 -60 -40 0 -40 0 0 60 c0 53 -2 60 -20 60 -11 0 -20 -1
-21 -2z"/>
<path d="M3285 1563 c-4 -21 -11 -40 -15 -43 -8 -5 -30 -140 -30 -186 0 -17 5
-24 20 -24 17 0 20 7 20 40 l0 40 40 0 c42 0 45 -4 40 -57 -1 -18 4 -23 24
-23 24 0 26 4 26 40 0 22 -4 40 -9 40 -4 0 -11 28 -14 61 -3 34 -9 65 -14 68
-8 6 -9 9 -11 56 -2 21 -7 25 -36 25 -31 0 -34 -3 -41 -37z m59 -78 c8 -42 2
-55 -25 -55 -20 0 -23 10 -13 59 9 42 30 39 38 -4z"/>
<path d="M3450 1455 c0 -137 1 -145 20 -145 16 0 19 8 22 63 3 56 5 62 26 65
16 3 22 -2 22 -17 0 -11 5 -23 10 -26 6 -3 10 -15 10 -26 0 -10 5 -19 10 -19
6 0 10 -9 10 -20 0 -13 7 -20 20 -20 13 0 20 7 20 20 0 11 -4 20 -8 20 -8 0
-32 87 -32 116 0 8 6 14 14 14 17 0 33 73 17 78 -6 2 -11 12 -11 23 0 17 -8
19 -75 19 l-75 0 0 -145z m116 65 c-1 -39 -1 -40 -38 -40 -38 0 -38 0 -38 40
0 40 0 40 38 40 39 0 39 0 38 -40z"/>
<path d="M3660 1455 l0 -145 65 0 c58 0 65 2 65 20 0 11 5 20 10 20 6 0 10 9
10 20 0 11 5 20 10 20 6 0 10 28 10 65 0 37 -4 65 -10 65 -5 0 -10 9 -10 20 0
11 -4 20 -10 20 -5 0 -10 9 -10 20 0 18 -7 20 -65 20 l-65 0 0 -145z m110 85
c0 -11 5 -20 10 -20 6 0 10 -28 10 -65 0 -37 -4 -65 -10 -65 -5 0 -10 -9 -10
-20 0 -16 -7 -20 -35 -20 l-35 0 0 105 0 105 35 0 c28 0 35 -4 35 -20z"/>
</g>
</svg>
